<svg xmlns="http://www.w3.org/2000/svg" xmlns:xlink="http://www.w3.org/1999/xlink" width="40" zoomAndPan="magnify" viewBox="0 0 30 30.000001" height="40" preserveAspectRatio="xMidYMid meet" version="1.0"><defs><clipPath id="5ee95ed008"><path d="M 1.289062 0.804688 L 28.871094 0.804688 L 28.871094 28.386719 L 1.289062 28.386719 Z M 1.289062 0.804688 " clip-rule="nonzero"/></clipPath><clipPath id="5699a9cefa"><path d="M 14 0.804688 L 28.871094 0.804688 L 28.871094 28.386719 L 14 28.386719 Z M 14 0.804688 " clip-rule="nonzero"/></clipPath></defs><g clip-path="url(#5ee95ed008)"><path fill="#e74c3d" d="M 28.695312 14.507812 C 28.695312 15.40625 28.605469 16.296875 28.429688 17.179688 C 28.253906 18.0625 27.996094 18.921875 27.652344 19.75 C 27.308594 20.582031 26.886719 21.371094 26.386719 22.121094 C 25.886719 22.867188 25.316406 23.5625 24.679688 24.195312 C 24.042969 24.832031 23.351562 25.402344 22.605469 25.902344 C 21.855469 26.402344 21.066406 26.824219 20.234375 27.167969 C 19.402344 27.511719 18.546875 27.773438 17.664062 27.945312 C 16.78125 28.121094 15.890625 28.210938 14.992188 28.210938 C 14.09375 28.210938 13.199219 28.121094 12.320312 27.945312 C 11.4375 27.773438 10.578125 27.511719 9.746094 27.167969 C 8.917969 26.824219 8.128906 26.402344 7.378906 25.902344 C 6.632812 25.402344 5.9375 24.832031 5.300781 24.195312 C 4.667969 23.5625 4.097656 22.867188 3.597656 22.121094 C 3.097656 21.371094 2.675781 20.582031 2.332031 19.75 C 1.988281 18.921875 1.726562 18.0625 1.550781 17.179688 C 1.375 16.296875 1.289062 15.40625 1.289062 14.507812 C 1.289062 13.609375 1.375 12.71875 1.550781 11.835938 C 1.726562 10.953125 1.988281 10.09375 2.332031 9.265625 C 2.675781 8.433594 3.097656 7.644531 3.597656 6.894531 C 4.097656 6.148438 4.667969 5.453125 5.300781 4.820312 C 5.9375 4.183594 6.632812 3.613281 7.378906 3.113281 C 8.128906 2.613281 8.917969 2.191406 9.746094 1.847656 C 10.578125 1.503906 11.4375 1.242188 12.320312 1.070312 C 13.199219 0.894531 14.09375 0.804688 14.992188 0.804688 C 15.890625 0.804688 16.78125 0.894531 17.664062 1.070312 C 18.546875 1.242188 19.402344 1.503906 20.234375 1.847656 C 21.066406 2.191406 21.855469 2.613281 22.605469 3.113281 C 23.351562 3.613281 24.042969 4.183594 24.679688 4.820312 C 25.316406 5.453125 25.886719 6.148438 26.386719 6.894531 C 26.886719 7.644531 27.308594 8.433594 27.652344 9.265625 C 27.996094 10.09375 28.253906 10.953125 28.429688 11.835938 C 28.605469 12.71875 28.695312 13.609375 28.695312 14.507812 Z M 28.695312 14.507812 " fill-opacity="1" fill-rule="nonzero"/></g><g clip-path="url(#5699a9cefa)"><path fill="#ffde5a" d="M 28.691406 14.507812 C 28.691406 15.40625 28.605469 16.296875 28.429688 17.179688 C 28.253906 18.0625 27.992188 18.917969 27.648438 19.75 C 27.304688 20.582031 26.882812 21.371094 26.382812 22.121094 C 25.882812 22.867188 25.316406 23.558594 24.679688 24.195312 C 24.042969 24.832031 23.351562 25.398438 22.605469 25.898438 C 21.855469 26.398438 21.066406 26.820312 20.234375 27.164062 C 19.402344 27.511719 18.546875 27.769531 17.664062 27.945312 C 16.78125 28.121094 15.890625 28.207031 14.992188 28.207031 L 14.992188 0.804688 C 15.890625 0.804688 16.78125 0.894531 17.664062 1.070312 C 18.546875 1.242188 19.402344 1.503906 20.234375 1.847656 C 21.066406 2.191406 21.855469 2.613281 22.605469 3.113281 C 23.351562 3.613281 24.042969 4.183594 24.679688 4.820312 C 25.316406 5.453125 25.882812 6.148438 26.382812 6.894531 C 26.882812 7.644531 27.304688 8.433594 27.648438 9.265625 C 27.992188 10.09375 28.253906 10.953125 28.429688 11.835938 C 28.605469 12.71875 28.691406 13.609375 28.691406 14.507812 Z M 28.691406 14.507812 " fill-opacity="1" fill-rule="nonzero"/></g></svg>