<svg xmlns="http://www.w3.org/2000/svg" xmlns:xlink="http://www.w3.org/1999/xlink" width="40" zoomAndPan="magnify" viewBox="0 0 30 30.000001" height="40" preserveAspectRatio="xMidYMid meet" version="1.0"><defs><clipPath id="bca208cc2f"><path d="M 1.269531 0.785156 L 28.851562 0.785156 L 28.851562 28.367188 L 1.269531 28.367188 Z M 1.269531 0.785156 " clip-rule="nonzero"/></clipPath><clipPath id="47518a9ed9"><path d="M 1.269531 0.785156 L 15 0.785156 L 15 28.367188 L 1.269531 28.367188 Z M 1.269531 0.785156 " clip-rule="nonzero"/></clipPath></defs><g clip-path="url(#bca208cc2f)"><path fill="#ffde5a" d="M 1.148438 14.515625 C 1.148438 13.605469 1.238281 12.707031 1.417969 11.8125 C 1.59375 10.921875 1.855469 10.054688 2.203125 9.214844 C 2.550781 8.375 2.980469 7.578125 3.484375 6.820312 C 3.988281 6.066406 4.5625 5.367188 5.207031 4.722656 C 5.851562 4.078125 6.550781 3.503906 7.304688 3 C 8.0625 2.496094 8.859375 2.070312 9.699219 1.722656 C 10.539062 1.371094 11.40625 1.109375 12.296875 0.933594 C 13.191406 0.753906 14.089844 0.667969 15 0.667969 C 15.910156 0.667969 16.808594 0.753906 17.703125 0.933594 C 18.59375 1.109375 19.460938 1.371094 20.300781 1.722656 C 21.140625 2.070312 21.9375 2.496094 22.695312 3 C 23.449219 3.503906 24.152344 4.078125 24.792969 4.722656 C 25.4375 5.367188 26.011719 6.066406 26.515625 6.820312 C 27.019531 7.578125 27.449219 8.375 27.796875 9.214844 C 28.144531 10.054688 28.40625 10.921875 28.585938 11.8125 C 28.761719 12.707031 28.851562 13.605469 28.851562 14.515625 C 28.851562 15.425781 28.761719 16.328125 28.585938 17.21875 C 28.40625 18.109375 28.144531 18.976562 27.796875 19.816406 C 27.449219 20.65625 27.019531 21.453125 26.515625 22.210938 C 26.011719 22.96875 25.4375 23.667969 24.792969 24.308594 C 24.152344 24.953125 23.449219 25.527344 22.695312 26.03125 C 21.9375 26.539062 21.140625 26.964844 20.300781 27.3125 C 19.460938 27.660156 18.59375 27.921875 17.703125 28.101562 C 16.808594 28.277344 15.910156 28.367188 15 28.367188 C 14.089844 28.367188 13.191406 28.277344 12.296875 28.101562 C 11.40625 27.921875 10.539062 27.660156 9.699219 27.3125 C 8.859375 26.964844 8.0625 26.539062 7.304688 26.03125 C 6.550781 25.527344 5.851562 24.953125 5.207031 24.308594 C 4.5625 23.667969 3.988281 22.96875 3.484375 22.210938 C 2.980469 21.453125 2.550781 20.65625 2.203125 19.816406 C 1.855469 18.976562 1.59375 18.109375 1.417969 17.21875 C 1.238281 16.328125 1.148438 15.425781 1.148438 14.515625 Z M 1.148438 14.515625 " fill-opacity="1" fill-rule="nonzero"/></g><g clip-path="url(#47518a9ed9)"><path fill="#2de6ce" d="M 1.152344 14.515625 C 1.152344 13.605469 1.242188 12.707031 1.417969 11.816406 C 1.597656 10.921875 1.859375 10.058594 2.207031 9.21875 C 2.554688 8.375 2.980469 7.578125 3.484375 6.824219 C 3.992188 6.066406 4.566406 5.367188 5.207031 4.722656 C 5.851562 4.082031 6.550781 3.507812 7.304688 3.003906 C 8.0625 2.496094 8.859375 2.070312 9.699219 1.722656 C 10.539062 1.375 11.40625 1.113281 12.296875 0.933594 C 13.191406 0.757812 14.089844 0.667969 15 0.667969 L 15 28.367188 C 14.089844 28.367188 13.191406 28.277344 12.296875 28.101562 C 11.40625 27.921875 10.539062 27.660156 9.699219 27.3125 C 8.859375 26.964844 8.0625 26.539062 7.304688 26.03125 C 6.550781 25.527344 5.851562 24.953125 5.207031 24.308594 C 4.566406 23.667969 3.992188 22.96875 3.484375 22.210938 C 2.980469 21.453125 2.554688 20.65625 2.207031 19.816406 C 1.859375 18.976562 1.597656 18.109375 1.417969 17.21875 C 1.242188 16.328125 1.152344 15.425781 1.152344 14.515625 Z M 1.152344 14.515625 " fill-opacity="1" fill-rule="nonzero"/></g></svg>