<svg xmlns="http://www.w3.org/2000/svg" xmlns:xlink="http://www.w3.org/1999/xlink" width="40" zoomAndPan="magnify" viewBox="0 0 30 30.000001" height="40" preserveAspectRatio="xMidYMid meet" version="1.0"><defs><clipPath id="817dedb7fa"><path d="M 1.054688 0.789062 L 28.636719 0.789062 L 28.636719 28.367188 L 1.054688 28.367188 Z M 1.054688 0.789062 " clip-rule="nonzero"/></clipPath><clipPath id="ab09c0698b"><path d="M 1.054688 0.789062 L 15 0.789062 L 15 28.367188 L 1.054688 28.367188 Z M 1.054688 0.789062 " clip-rule="nonzero"/></clipPath></defs><g clip-path="url(#817dedb7fa)"><path fill="#ffde5a" d="M 1.148438 14.625 C 1.148438 13.722656 1.238281 12.832031 1.414062 11.945312 C 1.589844 11.058594 1.851562 10.199219 2.195312 9.367188 C 2.542969 8.535156 2.964844 7.742188 3.464844 6.992188 C 3.96875 6.242188 4.539062 5.546875 5.175781 4.910156 C 5.8125 4.269531 6.507812 3.703125 7.257812 3.199219 C 8.007812 2.699219 8.800781 2.277344 9.632812 1.929688 C 10.46875 1.585938 11.328125 1.324219 12.210938 1.148438 C 13.097656 0.972656 13.988281 0.882812 14.890625 0.882812 C 15.792969 0.882812 16.6875 0.972656 17.574219 1.148438 C 18.457031 1.324219 19.316406 1.585938 20.152344 1.929688 C 20.984375 2.277344 21.777344 2.699219 22.527344 3.199219 C 23.277344 3.703125 23.972656 4.269531 24.609375 4.910156 C 25.246094 5.546875 25.816406 6.242188 26.320312 6.992188 C 26.820312 7.742188 27.242188 8.535156 27.589844 9.367188 C 27.933594 10.199219 28.195312 11.058594 28.371094 11.945312 C 28.546875 12.832031 28.636719 13.722656 28.636719 14.625 C 28.636719 15.527344 28.546875 16.421875 28.371094 17.308594 C 28.195312 18.191406 27.933594 19.050781 27.589844 19.886719 C 27.242188 20.71875 26.820312 21.511719 26.320312 22.261719 C 25.816406 23.011719 25.246094 23.707031 24.609375 24.34375 C 23.972656 24.980469 23.277344 25.550781 22.527344 26.050781 C 21.777344 26.554688 20.984375 26.976562 20.152344 27.324219 C 19.316406 27.667969 18.457031 27.929688 17.574219 28.105469 C 16.6875 28.28125 15.792969 28.367188 14.890625 28.367188 C 13.988281 28.367188 13.097656 28.28125 12.210938 28.105469 C 11.328125 27.929688 10.46875 27.667969 9.632812 27.324219 C 8.800781 26.976562 8.007812 26.554688 7.257812 26.050781 C 6.507812 25.550781 5.8125 24.980469 5.175781 24.34375 C 4.539062 23.707031 3.96875 23.011719 3.464844 22.261719 C 2.964844 21.511719 2.542969 20.71875 2.195312 19.886719 C 1.851562 19.050781 1.589844 18.191406 1.414062 17.308594 C 1.238281 16.421875 1.148438 15.527344 1.148438 14.625 Z M 1.148438 14.625 " fill-opacity="1" fill-rule="nonzero"/></g><g clip-path="url(#ab09c0698b)"><path fill="#ffffff" d="M 1.152344 14.625 C 1.152344 13.722656 1.242188 12.832031 1.417969 11.945312 C 1.59375 11.0625 1.851562 10.203125 2.199219 9.367188 C 2.542969 8.535156 2.964844 7.742188 3.46875 6.992188 C 3.96875 6.242188 4.539062 5.546875 5.175781 4.910156 C 5.8125 4.273438 6.507812 3.703125 7.257812 3.203125 C 8.007812 2.699219 8.800781 2.277344 9.632812 1.933594 C 10.46875 1.585938 11.328125 1.328125 12.210938 1.152344 C 13.097656 0.972656 13.992188 0.886719 14.890625 0.886719 L 14.890625 28.367188 C 13.992188 28.367188 13.097656 28.28125 12.210938 28.105469 C 11.328125 27.929688 10.46875 27.667969 9.632812 27.324219 C 8.800781 26.976562 8.007812 26.554688 7.257812 26.050781 C 6.507812 25.550781 5.8125 24.980469 5.175781 24.34375 C 4.539062 23.707031 3.96875 23.011719 3.46875 22.261719 C 2.964844 21.511719 2.542969 20.71875 2.199219 19.886719 C 1.851562 19.050781 1.59375 18.191406 1.417969 17.308594 C 1.242188 16.421875 1.152344 15.527344 1.152344 14.625 Z M 1.152344 14.625 " fill-opacity="1" fill-rule="nonzero"/></g></svg>