<svg xmlns="http://www.w3.org/2000/svg" xmlns:xlink="http://www.w3.org/1999/xlink" width="40" zoomAndPan="magnify" viewBox="0 0 30 30.000001" height="40" preserveAspectRatio="xMidYMid meet" version="1.0"><defs><clipPath id="1158d68359"><path d="M 1.117188 0.636719 L 28.699219 0.636719 L 28.699219 28.214844 L 1.117188 28.214844 Z M 1.117188 0.636719 " clip-rule="nonzero"/></clipPath><clipPath id="2b09b314a8"><path d="M 1.117188 0.636719 L 15 0.636719 L 15 28.214844 L 1.117188 28.214844 Z M 1.117188 0.636719 " clip-rule="nonzero"/></clipPath></defs><g clip-path="url(#1158d68359)"><path fill="#e74c3d" d="M 1.292969 14.511719 C 1.292969 13.613281 1.382812 12.722656 1.558594 11.839844 C 1.734375 10.957031 1.992188 10.101562 2.335938 9.269531 C 2.683594 8.4375 3.105469 7.648438 3.605469 6.902344 C 4.105469 6.152344 4.671875 5.460938 5.308594 4.824219 C 5.945312 4.1875 6.636719 3.621094 7.382812 3.121094 C 8.132812 2.621094 8.921875 2.199219 9.753906 1.855469 C 10.585938 1.507812 11.441406 1.25 12.324219 1.074219 C 13.207031 0.898438 14.097656 0.8125 14.996094 0.8125 C 15.898438 0.8125 16.789062 0.898438 17.671875 1.074219 C 18.554688 1.25 19.410156 1.507812 20.242188 1.855469 C 21.070312 2.199219 21.863281 2.621094 22.609375 3.121094 C 23.359375 3.621094 24.050781 4.1875 24.6875 4.824219 C 25.324219 5.460938 25.890625 6.152344 26.390625 6.902344 C 26.890625 7.648438 27.3125 8.4375 27.65625 9.269531 C 28 10.101562 28.261719 10.957031 28.4375 11.839844 C 28.613281 12.722656 28.699219 13.613281 28.699219 14.511719 C 28.699219 15.414062 28.613281 16.304688 28.4375 17.1875 C 28.261719 18.070312 28 18.925781 27.65625 19.757812 C 27.3125 20.589844 26.890625 21.378906 26.390625 22.125 C 25.890625 22.875 25.324219 23.566406 24.6875 24.203125 C 24.050781 24.839844 23.359375 25.40625 22.609375 25.90625 C 21.863281 26.40625 21.070312 26.828125 20.242188 27.171875 C 19.410156 27.515625 18.554688 27.777344 17.671875 27.953125 C 16.789062 28.128906 15.898438 28.214844 14.996094 28.214844 C 14.097656 28.214844 13.207031 28.128906 12.324219 27.953125 C 11.441406 27.777344 10.585938 27.515625 9.753906 27.171875 C 8.921875 26.828125 8.132812 26.40625 7.382812 25.90625 C 6.636719 25.40625 5.945312 24.839844 5.308594 24.203125 C 4.671875 23.566406 4.105469 22.875 3.605469 22.125 C 3.105469 21.378906 2.683594 20.589844 2.335938 19.757812 C 1.992188 18.925781 1.734375 18.070312 1.558594 17.1875 C 1.382812 16.304688 1.292969 15.414062 1.292969 14.511719 Z M 1.292969 14.511719 " fill-opacity="1" fill-rule="nonzero"/></g><g clip-path="url(#2b09b314a8)"><path fill="#ffde5a" d="M 1.296875 14.511719 C 1.296875 13.613281 1.382812 12.722656 1.558594 11.839844 C 1.734375 10.957031 1.996094 10.101562 2.339844 9.269531 C 2.683594 8.4375 3.105469 7.648438 3.605469 6.902344 C 4.105469 6.152344 4.671875 5.460938 5.308594 4.824219 C 5.945312 4.1875 6.636719 3.621094 7.386719 3.121094 C 8.132812 2.621094 8.921875 2.199219 9.753906 1.855469 C 10.585938 1.511719 11.441406 1.25 12.324219 1.074219 C 13.207031 0.902344 14.097656 0.8125 14.996094 0.8125 L 14.996094 28.214844 C 14.097656 28.214844 13.207031 28.128906 12.324219 27.953125 C 11.441406 27.777344 10.585938 27.515625 9.753906 27.171875 C 8.921875 26.828125 8.132812 26.40625 7.386719 25.90625 C 6.636719 25.40625 5.945312 24.839844 5.308594 24.203125 C 4.671875 23.566406 4.105469 22.875 3.605469 22.125 C 3.105469 21.378906 2.683594 20.589844 2.339844 19.757812 C 1.996094 18.925781 1.734375 18.070312 1.558594 17.1875 C 1.382812 16.304688 1.296875 15.414062 1.296875 14.511719 Z M 1.296875 14.511719 " fill-opacity="1" fill-rule="nonzero"/></g></svg>